<svg width="54" height="54" viewBox="0 0 54 54" fill="none" xmlns="http://www.w3.org/2000/svg">
<rect width="54" height="54" rx="27" fill="white"/>
<path d="M24.5 25.0003C24.5 24.2088 23.4472 23.9989 23.1679 24.7396C22.4923 26.5311 22 28.1337 22 29.0002C22 31.7616 24.2386 34.0002 27 34.0002C29.7614 34.0002 32 31.7616 32 29.0002C32 28.0693 31.4318 26.2887 30.6784 24.337C29.7026 21.8088 29.2146 20.5447 28.6123 20.4766C28.4196 20.4548 28.2093 20.494 28.0374 20.5837C27.5 20.8641 27.5 22.2428 27.5 25.0003C27.5 25.8287 26.8284 26.5003 26 26.5003C25.1716 26.5003 24.5 25.8287 24.5 25.0003Z" stroke="#1C1F21"/>
</svg>
