<svg width="54" height="54" viewBox="0 0 54 54" fill="none" xmlns="http://www.w3.org/2000/svg">
<rect width="54" height="54" rx="27" fill="white"/>
<circle cx="27" cy="23" r="2.5" stroke="#1C1F21" stroke-linecap="round"/>
<path d="M28.7679 21.5C28.9657 21.1574 29.2607 20.8812 29.6154 20.7063C29.9702 20.5313 30.3689 20.4655 30.7611 20.5171C31.1532 20.5687 31.5213 20.7355 31.8187 20.9963C32.1161 21.2571 32.3295 21.6003 32.4319 21.9824C32.5342 22.3644 32.521 22.7683 32.3939 23.1429C32.2667 23.5174 32.0313 23.8459 31.7175 24.0867C31.4037 24.3275 31.0255 24.4698 30.6308 24.4957C30.2361 24.5216 29.8426 24.4298 29.5 24.2321" stroke="#1C1F21"/>
<path d="M25.2321 21.5C25.0343 21.1574 24.7393 20.8812 24.3846 20.7063C24.0298 20.5313 23.6311 20.4655 23.2389 20.5171C22.8468 20.5687 22.4787 20.7355 22.1813 20.9963C21.8839 21.2571 21.6705 21.6003 21.5681 21.9824C21.4658 22.3644 21.479 22.7683 21.6061 23.1429C21.7333 23.5174 21.9687 23.8459 22.2825 24.0867C22.5963 24.3275 22.9745 24.4698 23.3692 24.4957C23.7639 24.5216 24.1574 24.4298 24.5 24.2321" stroke="#1C1F21"/>
<path d="M27 27.5C31.0802 27.5 32.1335 30.8022 32.4054 32.507C32.4924 33.0524 32.0523 33.5 31.5 33.5H22.5C21.9477 33.5 21.5076 33.0524 21.5946 32.507C21.8665 30.8022 22.9198 27.5 27 27.5Z" stroke="#1C1F21" stroke-linecap="round"/>
<path d="M34.2965 30.4162L33.8115 30.5377L34.2965 30.4162ZM28.087 27.5859L27.7178 27.2488L27.0974 27.9283L28.0051 28.0791L28.087 27.5859ZM32.1812 31.5L31.7009 31.639L31.8054 32H32.1812V31.5ZM30.4999 27C31.5277 27 32.2495 27.5027 32.7783 28.2069C33.3176 28.9253 33.6344 29.8306 33.8115 30.5377L34.7815 30.2948C34.5904 29.5315 34.2328 28.4787 33.5779 27.6065C32.9125 26.7203 31.9201 26 30.4999 26V27ZM28.4563 27.923C28.9566 27.375 29.6106 27 30.4999 27V26C29.2827 26 28.3735 26.5306 27.7178 27.2488L28.4563 27.923ZM28.0051 28.0791C30.3056 28.4614 31.2789 30.1801 31.7009 31.639L32.6616 31.361C32.1904 29.7326 31.0189 27.5663 28.169 27.0927L28.0051 28.0791ZM33.3949 31H32.1812V32H33.3949V31ZM33.8115 30.5377C33.8653 30.7526 33.7074 31 33.3949 31V32C34.2657 32 35.0151 31.2277 34.7815 30.2948L33.8115 30.5377Z" fill="#1C1F21"/>
<path d="M25.9129 27.5859L25.9949 28.0791L26.9026 27.9283L26.2821 27.2488L25.9129 27.5859ZM19.7034 30.4162L20.1885 30.5377L19.7034 30.4162ZM21.8187 31.5V32H22.1945L22.299 31.639L21.8187 31.5ZM23.5 27C24.3893 27 25.0433 27.375 25.5436 27.923L26.2821 27.2488C25.6264 26.5306 24.7172 26 23.5 26V27ZM20.1885 30.5377C20.3655 29.8306 20.6823 28.9253 21.2217 28.2069C21.7505 27.5027 22.4723 27 23.5 27V26C22.0798 26 21.0874 26.7203 20.422 27.6065C19.7671 28.4787 19.4096 29.5315 19.2184 30.2948L20.1885 30.5377ZM20.605 31C20.2925 31 20.1346 30.7526 20.1885 30.5377L19.2184 30.2948C18.9848 31.2277 19.7342 32 20.605 32V31ZM21.8187 31H20.605V32H21.8187V31ZM22.299 31.639C22.721 30.1801 23.6944 28.4614 25.9949 28.0791L25.8309 27.0927C22.981 27.5663 21.8095 29.7326 21.3384 31.361L22.299 31.639Z" fill="#1C1F21"/>
</svg>
