<svg width="27" height="27" viewBox="0 0 27 27" fill="none" xmlns="http://www.w3.org/2000/svg">
<rect width="27" height="27" fill="#F5F5F5"/>
<g id="Log in" clip-path="url(#clip0_1_3)">
<rect width="1920" height="1080" transform="translate(-1091 -594)" fill="white"/>
<g id="Background">
<rect id="Rectangle 33" x="-1091" y="-594" width="1920" height="1080" fill="#F5EFE1"/>
</g>
<g id="Log in_2">
<g id="Rectangle 34" filter="url(#filter0_d_1_3)">
<rect x="-826" y="-436" width="1390" height="764" rx="30" fill="#F5EFE1"/>
</g>
<g id="Log in_3" clip-path="url(#clip1_1_3)">
<rect id="Bacground for Log In" x="-76" y="-436" width="640" height="764" rx="30" fill="white"/>
<g id="Password">
<rect x="-15.5" y="-19.5" width="519" height="66" rx="11.5" stroke="#B5B5B5"/>
<g id="Frame">
<g id="Vector">
<path d="M21.375 11.25H22.5C23.1213 11.25 23.625 11.7537 23.625 12.375V23.625C23.625 24.2463 23.1213 24.75 22.5 24.75H4.5C3.87868 24.75 3.375 24.2463 3.375 23.625V12.375C3.375 11.7537 3.87868 11.25 4.5 11.25H5.625V10.125C5.625 5.77576 9.15076 2.25 13.5 2.25C17.8492 2.25 21.375 5.77576 21.375 10.125V11.25ZM5.625 13.5V22.5H21.375V13.5H5.625ZM12.375 15.75H14.625V20.25H12.375V15.75ZM19.125 11.25V10.125C19.125 7.0184 16.6066 4.5 13.5 4.5C10.3934 4.5 7.875 7.0184 7.875 10.125V11.25H19.125Z" fill="#B5B5B5"/>
<path d="M21.375 11.25H22.5C23.1213 11.25 23.625 11.7537 23.625 12.375V23.625C23.625 24.2463 23.1213 24.75 22.5 24.75H4.5C3.87868 24.75 3.375 24.2463 3.375 23.625V12.375C3.375 11.7537 3.87868 11.25 4.5 11.25H5.625V10.125C5.625 5.77576 9.15076 2.25 13.5 2.25C17.8492 2.25 21.375 5.77576 21.375 10.125V11.25ZM5.625 13.5V22.5H21.375V13.5H5.625ZM12.375 15.75H14.625V20.25H12.375V15.75ZM19.125 11.25V10.125C19.125 7.0184 16.6066 4.5 13.5 4.5C10.3934 4.5 7.875 7.0184 7.875 10.125V11.25H19.125Z" fill="black" fill-opacity="0.2"/>
<path d="M21.375 11.25H22.5C23.1213 11.25 23.625 11.7537 23.625 12.375V23.625C23.625 24.2463 23.1213 24.75 22.5 24.75H4.5C3.87868 24.75 3.375 24.2463 3.375 23.625V12.375C3.375 11.7537 3.87868 11.25 4.5 11.25H5.625V10.125C5.625 5.77576 9.15076 2.25 13.5 2.25C17.8492 2.25 21.375 5.77576 21.375 10.125V11.25ZM5.625 13.5V22.5H21.375V13.5H5.625ZM12.375 15.75H14.625V20.25H12.375V15.75ZM19.125 11.25V10.125C19.125 7.0184 16.6066 4.5 13.5 4.5C10.3934 4.5 7.875 7.0184 7.875 10.125V11.25H19.125Z" fill="black" fill-opacity="0.2"/>
<path d="M21.375 11.25H22.5C23.1213 11.25 23.625 11.7537 23.625 12.375V23.625C23.625 24.2463 23.1213 24.75 22.5 24.75H4.5C3.87868 24.75 3.375 24.2463 3.375 23.625V12.375C3.375 11.7537 3.87868 11.25 4.5 11.25H5.625V10.125C5.625 5.77576 9.15076 2.25 13.5 2.25C17.8492 2.25 21.375 5.77576 21.375 10.125V11.25ZM5.625 13.5V22.5H21.375V13.5H5.625ZM12.375 15.75H14.625V20.25H12.375V15.75ZM19.125 11.25V10.125C19.125 7.0184 16.6066 4.5 13.5 4.5C10.3934 4.5 7.875 7.0184 7.875 10.125V11.25H19.125Z" fill="black" fill-opacity="0.2"/>
</g>
</g>
</g>
</g>
</g>
</g>
<defs>
<filter id="filter0_d_1_3" x="-926" y="-536" width="1590" height="964" filterUnits="userSpaceOnUse" color-interpolation-filters="sRGB">
<feFlood flood-opacity="0" result="BackgroundImageFix"/>
<feColorMatrix in="SourceAlpha" type="matrix" values="0 0 0 0 0 0 0 0 0 0 0 0 0 0 0 0 0 0 127 0" result="hardAlpha"/>
<feOffset/>
<feGaussianBlur stdDeviation="50"/>
<feComposite in2="hardAlpha" operator="out"/>
<feColorMatrix type="matrix" values="0 0 0 0 0 0 0 0 0 0 0 0 0 0 0 0 0 0 0.1 0"/>
<feBlend mode="normal" in2="BackgroundImageFix" result="effect1_dropShadow_1_3"/>
<feBlend mode="normal" in="SourceGraphic" in2="effect1_dropShadow_1_3" result="shape"/>
</filter>
<clipPath id="clip0_1_3">
<rect width="1920" height="1080" fill="white" transform="translate(-1091 -594)"/>
</clipPath>
<clipPath id="clip1_1_3">
<rect width="640" height="764" fill="white" transform="translate(-76 -436)"/>
</clipPath>
</defs>
</svg>
